<svg xmlns="http://www.w3.org/2000/svg" version="1.1" viewBox="24 24 350 350">
<path d="M 29,241 30,242 30,245 31,246 31,249 32,250 32,252 33,253 33,255 34,256 34,258 35,259 35,261 36,262 36,263 37,264 37,266 38,267 38,268 39,269 39,270 40,271 40,273 41,274 41,275 42,276 42,277 43,278 43,279 44,280 44,281 45,282 45,283 47,285 47,286 48,287 48,288 50,290 50,291 51,292 51,293 53,295 53,296 55,298 55,299 57,301 57,302 60,305 60,306 64,310 64,311 69,316 69,317 81,329 82,329 88,335 89,335 93,339 94,339 97,342 98,342 100,344 101,344 103,346 104,346 106,348 107,348 108,349 109,349 111,351 112,351 113,352 114,352 115,353 116,353 118,355 119,355 120,356 121,356 122,357 123,357 124,358 126,358 127,359 128,359 129,360 130,360 131,361 132,361 133,362 135,362 136,363 138,363 139,364 140,364 141,365 143,365 144,366 146,366 147,367 150,367 151,368 153,368 154,369 157,369 158,370 162,370 163,371 167,371 168,372 173,372 174,373 181,373 182,374 216,374 217,373 224,373 225,372 230,372 231,371 236,371 237,370 240,370 241,369 244,369 245,368 247,368 248,367 251,367 252,366 254,366 255,365 257,365 258,364 259,364 260,363 262,363 263,362 265,362 266,361 267,361 268,360 269,360 270,359 272,359 273,358 274,358 275,357 276,357 277,356 278,356 279,355 280,355 281,354 282,354 284,352 285,352 286,351 287,351 288,350 289,350 291,348 292,348 294,346 295,346 297,344 298,344 300,342 301,342 304,339 305,339 308,336 309,336 315,330 316,330 330,316 330,315 335,310 335,309 339,305 339,304 341,302 341,301 343,299 343,298 346,295 346,294 347,293 347,292 349,290 349,289 350,288 350,287 352,285 352,284 353,283 353,282 354,281 354,280 355,279 355,278 356,277 356,276 357,275 357,274 358,273 358,272 359,271 359,269 360,268 360,267 361,266 361,265 362,264 362,262 363,261 363,259 364,258 364,256 365,255 365,253 366,252 366,250 367,249 367,247 368,246 368,243 369,242 369,241 Z" fill="black" />
<path d="M 192,24 191,25 179,25 178,26 172,26 171,27 166,27 165,28 161,28 160,29 157,29 156,30 153,30 152,31 150,31 149,32 147,32 146,33 144,33 143,34 141,34 140,35 138,35 137,36 135,36 134,37 133,37 132,38 131,38 130,39 128,39 127,40 126,40 125,41 124,41 123,42 122,42 121,43 120,43 119,44 118,44 117,45 116,45 115,46 114,46 112,48 111,48 110,49 109,49 107,51 106,51 105,52 104,52 102,54 101,54 98,57 97,57 95,59 94,59 90,63 89,63 84,68 83,68 68,83 68,84 63,89 63,90 59,94 59,95 57,97 57,98 54,101 54,102 53,103 53,104 51,106 51,107 49,109 49,110 48,111 48,112 46,114 46,115 45,116 45,117 44,118 44,119 43,120 43,121 42,122 42,123 41,124 41,125 40,126 40,127 39,128 39,130 38,131 38,132 37,133 37,135 36,136 36,137 35,138 35,140 34,141 34,143 33,144 33,146 32,147 32,149 31,150 31,153 30,154 30,156 29,157 29,161 28,162 28,165 27,166 27,171 26,172 26,178 25,179 25,191 24,192 24,212 50,212 50,184 51,183 51,177 52,176 52,171 53,170 53,166 54,165 54,162 55,161 55,159 56,158 56,155 57,154 57,152 58,151 58,149 59,148 59,147 60,146 60,144 61,143 61,142 62,141 62,139 63,138 63,137 64,136 64,135 65,134 65,133 66,132 66,131 67,130 67,129 68,128 68,127 70,125 70,124 71,123 71,122 73,120 73,119 75,117 75,116 77,114 77,113 79,111 79,110 83,106 83,105 89,99 89,98 98,89 99,89 105,83 106,83 110,79 111,79 113,77 114,77 117,74 118,74 119,73 120,73 122,71 123,71 124,70 125,70 127,68 128,68 129,67 130,67 131,66 132,66 133,65 134,65 135,64 136,64 137,63 138,63 139,62 141,62 142,61 143,61 144,60 146,60 147,59 148,59 149,58 151,58 152,57 154,57 155,56 158,56 159,55 161,55 162,54 165,54 166,53 170,53 171,52 176,52 177,51 184,51 185,50 213,50 214,51 221,51 222,52 227,52 228,53 232,53 233,54 236,54 237,55 240,55 241,56 243,56 244,57 246,57 247,58 249,58 250,59 251,59 252,60 254,60 255,61 256,61 257,62 259,62 260,63 261,63 262,64 263,64 264,65 265,65 266,66 267,66 268,67 269,67 270,68 271,68 272,69 273,69 275,71 276,71 277,72 278,72 280,74 281,74 283,76 284,76 287,79 288,79 291,82 292,82 297,87 298,87 311,100 311,101 316,106 316,107 319,110 319,111 322,114 322,115 324,117 324,118 326,120 326,121 327,122 327,123 329,125 329,126 330,127 330,128 331,129 331,130 332,131 332,132 333,133 333,134 334,135 334,136 335,137 335,138 336,139 336,140 337,141 337,143 338,144 338,145 339,146 339,148 340,149 340,151 341,152 341,154 342,155 342,157 343,158 343,161 344,162 344,165 345,166 345,169 346,170 346,175 347,176 347,182 348,183 348,185 346,187 321,187 319,185 319,182 318,181 318,176 317,175 317,172 316,171 316,168 315,167 315,164 314,163 314,161 313,160 313,158 312,157 312,156 311,155 311,153 310,152 310,151 309,150 309,149 308,148 308,147 307,146 307,145 306,144 306,143 305,142 305,141 304,140 304,139 303,138 303,137 301,135 301,134 299,132 299,131 297,129 297,128 294,125 294,124 288,118 288,117 281,110 280,110 275,105 274,105 271,102 270,102 267,99 266,99 264,97 263,97 262,96 261,96 259,94 258,94 257,93 256,93 255,92 254,92 253,91 252,91 251,90 250,90 249,89 248,89 247,88 245,88 244,87 243,87 242,86 240,86 239,85 237,85 236,84 234,84 233,83 231,83 230,82 227,82 226,81 222,81 221,80 216,80 215,79 202,79 201,78 197,78 196,79 184,79 183,80 177,80 176,81 173,81 172,82 168,82 167,83 165,83 164,84 162,84 161,85 159,85 158,86 156,86 155,87 154,87 153,88 151,88 150,89 149,89 148,90 147,90 146,91 145,91 144,92 143,92 142,93 141,93 140,94 139,94 137,96 136,96 134,98 133,98 132,99 131,99 128,102 127,102 124,105 123,105 115,113 114,113 113,114 113,115 105,123 105,124 102,127 102,128 99,131 99,132 97,134 97,135 96,136 96,137 94,139 94,140 93,141 93,142 92,143 92,144 91,145 91,146 90,147 90,148 89,149 89,150 88,151 88,153 87,154 87,155 86,156 86,158 85,159 85,161 84,162 84,164 83,165 83,167 82,168 82,171 81,172 81,176 80,177 80,182 79,183 79,193 78,194 78,212 158,212 158,192 159,191 159,188 160,187 160,185 161,184 161,183 162,182 162,181 163,180 163,179 164,178 164,177 167,174 167,173 173,167 174,167 177,164 178,164 179,163 180,163 181,162 182,162 183,161 184,161 185,160 188,160 189,159 192,159 193,158 205,158 206,159 210,159 211,160 213,160 214,161 215,161 216,162 217,162 218,163 219,163 220,164 221,164 223,166 224,166 232,174 232,175 234,177 234,178 236,180 236,181 237,182 237,184 238,185 238,187 239,188 239,190 240,191 240,212 266,212 266,194 265,193 265,187 264,186 264,182 263,181 263,179 262,178 262,176 261,175 261,174 260,173 260,172 259,171 259,169 257,167 257,166 256,165 256,164 254,162 254,161 252,159 252,158 241,147 240,147 237,144 236,144 234,142 233,142 232,141 231,141 230,140 229,140 228,139 227,139 226,138 225,138 224,137 222,137 221,136 219,136 218,135 216,135 215,134 211,134 210,133 188,133 187,134 184,134 183,135 180,135 179,136 177,136 176,137 174,137 173,138 172,138 171,139 170,139 169,140 168,140 167,141 166,141 165,142 164,142 162,144 161,144 158,147 157,147 147,157 147,158 144,161 144,162 142,164 142,165 141,166 141,167 140,168 140,169 139,170 139,171 138,172 138,173 137,174 137,176 136,177 136,179 135,180 135,182 134,183 134,185 132,187 106,187 105,186 105,182 106,181 106,177 107,176 107,173 108,172 108,170 109,169 109,167 110,166 110,165 111,164 111,162 112,161 112,160 113,159 113,158 114,157 114,156 115,155 115,154 116,153 116,152 118,150 118,149 119,148 119,147 122,144 122,143 125,140 125,139 139,125 140,125 143,122 144,122 147,119 148,119 149,118 150,118 152,116 153,116 154,115 155,115 156,114 157,114 158,113 159,113 160,112 161,112 162,111 164,111 165,110 166,110 167,109 169,109 170,108 173,108 174,107 176,107 177,106 181,106 182,105 188,105 189,104 209,104 210,105 216,105 217,106 221,106 222,107 225,107 226,108 228,108 229,109 231,109 232,110 233,110 234,111 236,111 237,112 238,112 239,113 240,113 241,114 242,114 243,115 244,115 245,116 246,116 247,117 248,117 250,119 251,119 253,121 254,121 257,124 258,124 274,140 274,141 277,144 277,145 279,147 279,148 281,150 281,151 282,152 282,153 283,154 283,155 284,156 284,157 285,158 285,159 286,160 286,161 287,162 287,163 288,164 288,166 289,167 289,169 290,170 290,172 291,173 291,175 292,176 292,180 293,181 293,186 294,187 294,212 374,212 374,189 373,188 373,178 372,177 372,171 371,170 371,166 370,165 370,161 369,160 369,157 368,156 368,153 367,152 367,150 366,149 366,146 365,145 365,143 364,142 364,141 363,140 363,138 362,137 362,135 361,134 361,133 360,132 360,130 359,129 359,128 358,127 358,126 357,125 357,124 356,123 356,122 355,121 355,120 354,119 354,118 353,117 353,116 352,115 352,114 351,113 351,112 349,110 349,109 348,108 348,107 346,105 346,104 344,102 344,101 342,99 342,98 339,95 339,94 336,91 336,90 331,85 331,84 314,67 313,67 308,62 307,62 304,59 303,59 300,56 299,56 297,54 296,54 294,52 293,52 291,50 290,50 289,49 288,49 286,47 285,47 284,46 283,46 282,45 281,45 280,44 279,44 278,43 277,43 276,42 275,42 274,41 273,41 272,40 271,40 270,39 269,39 268,38 266,38 265,37 264,37 263,36 261,36 260,35 258,35 257,34 256,34 255,33 252,33 251,32 249,32 248,31 246,31 245,30 242,30 241,29 238,29 237,28 233,28 232,27 227,27 226,26 220,26 219,25 207,25 206,24 Z" fill="black" />
</svg>
